<svg xmlns="http://www.w3.org/2000/svg" width="244" height="21" viewBox="0 0 244 21">
    <path fill="#2B2B2A" fill-rule="evenodd" d="M0 20.577V0h5.08v20.577H0zm39.764 0l-7.13-11.57v11.57h-5.106V0h5.55l7.132 11.571V0h5.104v20.577h-5.55zm36.619 0h-4.785L63.941 0h5.447l4.602 12.369L78.591 0h5.448l-7.656 20.577zM111.309.001l7.657 20.576h-5.447l-1.243-3.34-6.717-.001-1.243 3.341h-5.448L106.525 0h4.784zm-2.395 8.21l-1.457 3.92h2.917l-1.46-3.92zm21.98-3.076V0h18.304v5.135h-6.512v15.442h-5.135V5.135h-6.658zm35.565 15.442V0h5.113v20.577h-5.113zm34.86 0h-4.784L188.878 0h5.447l4.602 12.369L203.528 0h5.447l-7.656 20.577zM236.343.001L244 20.577h-5.447l-1.242-3.34-6.718-.001-1.243 3.341h-5.448L231.56 0h4.784zm-2.395 8.21l-1.457 3.92h2.917l-1.46-3.92z"/>
</svg>
