<svg xmlns="http://www.w3.org/2000/svg" width="219" height="135" viewBox="0 0 219 135">
    <defs>
        <radialGradient id="a" fx="50%" fy="50%" gradientTransform="matrix(0 1 -.99944 0 1 0)">
            <stop offset="0%" stop-color="#DCDCDC"/>
            <stop offset="53.599%" stop-color="#E2E2E2" stop-opacity=".398"/>
            <stop offset="100%" stop-color="#E4E4E4" stop-opacity="0"/>
        </radialGradient>
    </defs>
    <g fill="none" fill-rule="nonzero">
        <g transform="translate(15)">
            <path fill="#EEE" d="M31.185 10.41C55.417-6.94 71.958 7.634 96.48 7.634s25.102-6.246 41.354-6.246c21.04 0 51.51 36.087 50.06 69.397-.291 7.634-2.177 18.46-8.707 25.678-3.867 4.915-9.966 7.755-16.396 7.633-24.232 0-31.197-20.541-70.664-21.513-11.318-.278-22.49 4.997-34.824 11.104-10.302 5.135-21.185 11.797-34.824 9.021-4.933-.971-9.722-4.719-13.06-9.021-4.497-5.83-6.964-13.463-7.254-22.902-.58-16.516 6.965-33.172 15.96-45.802 4.209-5.968 8.417-11.242 13.06-14.573z"/>
            <path fill="#E3E3E3" d="M162.936 105.484c-11.173 0-19.008-4.302-27.279-8.883-10.302-5.69-22.055-12.075-43.53-12.63-10.882-.278-21.91 4.858-34.099 10.965-.997.455-1.966.965-2.902 1.527-9.431 4.719-20.168 10.27-32.937 7.633-4.789-.971-10.012-4.58-13.93-9.577C3.616 88.412 1.15 80.78.714 70.785-.012 50.8 10.58 33.033 16.965 24.15c4.788-6.662 8.851-11.658 13.35-14.85C47.29-2.777 60.64.138 74.86 3.191a96.337 96.337 0 0 0 21.62 3.054c8.463.186 16.9-.986 24.957-3.47A50.136 50.136 0 0 1 137.834 0c8.125 0 18.137 5.274 27.278 14.296 15.526 15.545 25.103 37.752 24.232 56.49-.29 6.384-1.886 18.46-8.996 26.51-3.192 3.608-8.27 8.188-17.412 8.188zm-71.68-24.289h.871c22.2.555 34.244 7.217 44.836 13.047 8.27 4.58 15.38 8.466 25.828 8.466 5.95.023 11.576-2.59 15.235-7.078 6.675-7.495 8.126-18.738 8.416-24.845.726-18.043-8.416-39.417-23.361-54.407-8.56-8.744-17.847-13.602-25.247-13.602-5.3-.027-10.56.867-15.526 2.637-5.66 1.666-12.043 3.609-25.828 3.609a101.755 101.755 0 0 1-22.345-3.054C60.06 2.915 47.87.278 32.055 11.52c-4.207 3.053-8.125 7.911-12.768 14.296C8.84 40.25 3.18 56.628 3.616 70.786c.29 9.299 2.612 16.516 6.965 22.068 3.482 4.441 8.125 7.634 12.188 8.466 11.753 2.36 21.475-2.637 30.906-7.356 1.016-.555 2.032-.971 2.902-1.527 12.334-6.106 23.507-11.242 34.68-11.242z"/>
            <ellipse cx="119.696" cy="44.414" fill="#DDD" rx="5.804" ry="5.552"/>
            <ellipse cx="126.226" cy="63.152" fill="#7589B5" rx="7.981" ry="7.634"/>
            <ellipse cx="49.322" cy="49.272" fill="#DDD" rx="18.138" ry="17.349"/>
            <path fill="#8B8B8B" d="M45.695 38.863h7.255v20.819h-7.255z"/>
            <path fill="#8B8B8B" d="M38.44 45.802h21.765v6.94H38.44z"/>
            <ellipse cx="143.638" cy="56.212" fill="#7589B5" rx="7.981" ry="7.634"/>
            <ellipse cx="162.501" cy="52.048" fill="#7589B5" rx="7.981" ry="7.634"/>
            <ellipse cx="135.657" cy="38.863" fill="#DDD" rx="5.804" ry="5.552"/>
            <ellipse cx="151.618" cy="34.699" fill="#DDD" rx="5.804" ry="5.552"/>
            <path fill="#7589B5" d="M88.5 27.759h15.96a3.684 3.684 0 0 1 2.574 1.008 3.367 3.367 0 0 1 1.054 2.462 3.367 3.367 0 0 1-1.054 2.462 3.684 3.684 0 0 1-2.573 1.008H88.5a3.684 3.684 0 0 1-2.574-1.008 3.367 3.367 0 0 1-1.054-2.462 3.367 3.367 0 0 1 1.054-2.462A3.684 3.684 0 0 1 88.5 27.76zM104.46 63.846H88.5c-2.004 0-3.628-1.554-3.628-3.47 0-1.917 1.624-3.47 3.628-3.47h15.96c2.004 0 3.628 1.553 3.628 3.47 0 1.916-1.624 3.47-3.627 3.47zM88.5 58.294c-1.203 0-2.177.932-2.177 2.082s.974 2.082 2.177 2.082h15.96c1.203 0 2.177-.932 2.177-2.082s-.974-2.082-2.176-2.082H88.5z"/>
        </g>
        <ellipse cx="109.5" cy="123.5" fill="url(#a)" rx="109.5" ry="11.5"/>
    </g>
</svg>
